<svg width="362" height="107" viewBox="0 0 362 107" fill="none" xmlns="http://www.w3.org/2000/svg">
<mask id="mask0_372_352" style="mask-type:alpha" maskUnits="userSpaceOnUse" x="0" y="-16" width="362" height="123">
<path d="M201.005 27.701C201.004 27.8569 200.971 28.0109 200.91 28.1543C200.849 28.2976 200.76 28.4275 200.648 28.5364C200.536 28.6454 200.404 28.7314 200.259 28.7893C200.115 28.8473 199.96 28.8761 199.804 28.8742C187.453 26.5985 174.789 26.5985 162.438 28.8742C162.124 28.8766 161.821 28.7545 161.597 28.5346C161.372 28.3148 161.244 28.0151 161.24 27.701V27.6831C161.245 27.3698 161.374 27.0713 161.598 26.8523C161.823 26.6333 162.125 26.5116 162.438 26.5135C162.438 26.5135 168.278 24.681 181.122 24.681C193.966 24.681 199.804 26.5135 199.804 26.5135C200.118 26.5101 200.421 26.6313 200.646 26.8505C200.871 27.0697 201 27.369 201.005 27.6831V27.701ZM212.561 1.42607C212.538 2.32021 212.16 3.16843 211.511 3.78452C210.861 4.40062 209.994 4.73419 209.099 4.71198C208.747 4.71142 208.398 4.65999 208.061 4.55929C206.611 6.95592 199.856 15.8328 199.856 22.3185C199.856 22.3185 201.005 22.9095 201.005 23.6318C201.015 23.9482 200.899 24.2557 200.685 24.4884C200.47 24.7211 200.172 24.8605 199.856 24.8768C187.429 22.467 174.654 22.467 162.228 24.8768C161.911 24.8609 161.614 24.7216 161.399 24.4887C161.184 24.2559 161.07 23.9481 161.08 23.6318C161.08 22.9131 162.228 22.3185 162.228 22.3185C162.228 15.8328 155.469 6.95592 154.019 4.55929C153.685 4.65988 153.339 4.71131 152.99 4.71198C152.348 4.67827 151.731 4.45747 151.213 4.07681C150.696 3.69614 150.301 3.17233 150.079 2.57015C149.856 1.96798 149.815 1.31384 149.96 0.688593C150.106 0.0633469 150.432 -0.505611 150.898 -0.947891C151.363 -1.39017 151.949 -1.68639 152.581 -1.79996C153.214 -1.91353 153.866 -1.83942 154.456 -1.58685C155.047 -1.33428 155.551 -0.914316 155.905 -0.378839C156.26 0.156639 156.449 0.784147 156.451 1.42607C156.449 1.88837 156.347 2.34478 156.151 2.76342C155.954 3.18206 155.669 3.5528 155.314 3.84966C156.875 5.80254 162.033 11.9073 165.505 11.9073C168.115 11.9073 168.037 8.8028 166.404 -3.81996H166.224C165.482 -3.86034 164.769 -4.11696 164.172 -4.5581C163.574 -4.99925 163.119 -5.60556 162.863 -6.3021C162.607 -6.99864 162.561 -7.75486 162.731 -8.47726C162.901 -9.19966 163.278 -9.85656 163.818 -10.3668C164.357 -10.877 165.034 -11.2182 165.766 -11.3481C166.497 -11.478 167.25 -11.3909 167.933 -11.0977C168.615 -10.8045 169.197 -10.3179 169.605 -9.69816C170.014 -9.07843 170.231 -8.35272 170.231 -7.61072C170.223 -6.88653 170.007 -6.18003 169.608 -5.57498C169.21 -4.96994 168.646 -4.49176 167.983 -4.19723C169.422 -0.438784 173.503 9.58434 175.526 8.83696C177.717 8.0303 179.746 -3.11391 180.203 -7.72394C179.255 -7.87575 178.387 -8.34287 177.738 -9.04955C177.09 -9.75623 176.7 -10.661 176.631 -11.6171C176.631 -11.689 176.631 -11.7591 176.631 -11.8291C176.631 -11.8992 176.631 -11.9746 176.631 -12.0411C176.745 -13.1276 177.258 -14.1334 178.071 -14.8645C178.884 -15.5955 179.939 -16 181.033 -16C182.127 -16 183.182 -15.5955 183.995 -14.8645C184.807 -14.1334 185.32 -13.1276 185.435 -12.0411C185.435 -11.9746 185.435 -11.9046 185.435 -11.8291C185.435 -11.7537 185.435 -11.689 185.435 -11.6171C185.365 -10.6621 184.974 -9.75863 184.326 -9.05328C183.677 -8.34792 182.81 -7.88203 181.863 -7.73112C182.32 -3.1211 184.348 8.02312 186.539 8.82978C188.564 9.57716 192.64 -0.445967 194.093 -4.20441C193.429 -4.49713 192.864 -4.97477 192.464 -5.58014C192.065 -6.1855 191.849 -6.89296 191.841 -7.6179C191.798 -8.41806 191.996 -9.21279 192.41 -9.89937C192.824 -10.5859 193.434 -11.1329 194.162 -11.4694C194.89 -11.806 195.702 -11.9167 196.494 -11.7873C197.286 -11.6579 198.02 -11.2944 198.603 -10.7437C199.186 -10.1929 199.59 -9.48029 199.763 -8.69783C199.936 -7.91538 199.87 -7.09906 199.574 -6.35435C199.278 -5.60964 198.765 -4.97072 198.101 -4.52022C197.438 -4.06971 196.654 -3.82831 195.852 -3.82714H195.672C194.039 8.79562 193.962 11.9001 196.572 11.9001C200.052 11.9001 205.205 5.79177 206.764 3.84248C206.41 3.54553 206.124 3.17472 205.928 2.75607C205.732 2.33743 205.63 1.88107 205.629 1.41889C205.675 0.531445 206.059 -0.304723 206.704 -0.916859C207.349 -1.52899 208.205 -1.87036 209.094 -1.87036C209.984 -1.87036 210.84 -1.52899 211.484 -0.916859C212.129 -0.304723 212.514 0.531445 212.559 1.41889L212.561 1.42607ZM154.433 1.41889C154.448 1.12838 154.376 0.839884 154.225 0.590891C154.075 0.341898 153.853 0.1439 153.588 0.0224972C153.323 -0.0989075 153.028 -0.138105 152.741 -0.0899544C152.454 -0.0418034 152.188 0.0914593 151.977 0.292521C151.767 0.493582 151.621 0.753155 151.56 1.03762C151.499 1.32209 151.525 1.61834 151.635 1.88788C151.745 2.15743 151.933 2.38783 152.175 2.54926C152.417 2.7107 152.702 2.79572 152.994 2.79325C153.367 2.80096 153.728 2.66066 153.998 2.40304C154.267 2.14543 154.424 1.79153 154.433 1.41889ZM167.922 -7.6179C167.939 -7.95764 167.853 -8.29468 167.677 -8.58544C167.5 -8.87619 167.24 -9.1073 166.93 -9.24901C166.621 -9.39073 166.276 -9.43652 165.94 -9.38043C165.604 -9.32434 165.293 -9.16895 165.046 -8.93436C164.8 -8.69976 164.629 -8.39673 164.557 -8.06436C164.484 -7.73199 164.513 -7.38557 164.64 -7.06979C164.766 -6.75402 164.985 -6.48341 165.267 -6.29289C165.549 -6.10237 165.882 -6.00069 166.222 -6.00099C166.44 -5.9955 166.657 -6.03298 166.861 -6.1113C167.064 -6.18962 167.25 -6.30725 167.408 -6.45743C167.566 -6.60761 167.692 -6.78738 167.781 -6.98651C167.869 -7.18564 167.917 -7.4002 167.922 -7.6179ZM181.032 -9.75583C181.439 -9.77761 181.831 -9.9182 182.159 -10.1602C182.488 -10.4022 182.738 -10.735 182.879 -11.1174C183.019 -11.4998 183.045 -11.915 182.952 -12.3118C182.859 -12.7085 182.652 -13.0693 182.356 -13.3496C182.059 -13.6299 181.688 -13.8173 181.286 -13.8887C180.884 -13.9601 180.471 -13.9123 180.096 -13.7513C179.721 -13.5902 179.402 -13.323 179.178 -12.9827C178.953 -12.6423 178.834 -12.2438 178.834 -11.8363C178.85 -11.2697 179.091 -10.7327 179.503 -10.3428C179.915 -9.95286 180.465 -9.74182 181.032 -9.75583ZM194.144 -7.6179C194.127 -7.2788 194.213 -6.94255 194.389 -6.65245C194.566 -6.36234 194.825 -6.13169 195.134 -5.99024C195.443 -5.8488 195.787 -5.80302 196.123 -5.85882C196.458 -5.91462 196.769 -6.06943 197.015 -6.30331C197.262 -6.53719 197.432 -6.83945 197.505 -7.17106C197.578 -7.50267 197.55 -7.84844 197.424 -8.16387C197.298 -8.4793 197.081 -8.74989 196.8 -8.94077C196.519 -9.13165 196.187 -9.23411 195.847 -9.23487C195.407 -9.24549 194.98 -9.08121 194.661 -8.7781C194.341 -8.47499 194.155 -8.05774 194.144 -7.6179ZM210.541 1.41889C210.557 1.12843 210.485 0.839884 210.335 0.590616C210.185 0.341349 209.964 0.142813 209.699 0.0206871C209.435 -0.101439 209.14 -0.141519 208.853 -0.0943956C208.565 -0.0472717 208.299 0.0848846 208.087 0.285009C207.876 0.485134 207.73 0.744015 207.667 1.02814C207.605 1.31226 207.629 1.60857 207.737 1.87873C207.845 2.14889 208.032 2.38046 208.273 2.54351C208.514 2.70655 208.799 2.79354 209.09 2.79325C209.465 2.80291 209.828 2.66362 210.1 2.40595C210.372 2.14827 210.531 1.79329 210.541 1.41889ZM181.127 19.4978C181.716 19.4669 182.284 19.2642 182.759 18.9146C183.234 18.565 183.596 18.084 183.8 17.5311C184.005 16.9781 184.042 16.3775 183.908 15.8034C183.774 15.2294 183.475 14.7071 183.047 14.3013C182.619 13.8954 182.082 13.6237 181.501 13.5199C180.92 13.416 180.321 13.4844 179.779 13.7168C179.237 13.9492 178.775 14.3352 178.45 14.8272C178.125 15.3192 177.951 15.8956 177.951 16.485C177.974 17.3048 178.321 18.0822 178.916 18.6469C179.511 19.2117 180.306 19.5177 181.127 19.4978ZM189.201 19.6775C189.715 19.6501 190.209 19.4729 190.623 19.1678C191.036 18.8628 191.351 18.4432 191.529 17.9611C191.706 17.479 191.738 16.9554 191.621 16.4553C191.504 15.9552 191.242 15.5005 190.869 15.1473C190.495 14.7942 190.026 14.5581 189.52 14.4684C189.014 14.3787 188.492 14.4393 188.02 14.6426C187.548 14.846 187.145 15.1832 186.863 15.6125C186.581 16.0418 186.431 16.5444 186.431 17.0581C186.451 17.7723 186.754 18.4494 187.273 18.9406C187.793 19.4318 188.486 19.6968 189.201 19.6775ZM196.244 20.8184C196.669 20.7955 197.077 20.6487 197.419 20.3961C197.761 20.1435 198.021 19.7963 198.168 19.3975C198.314 18.9986 198.34 18.5657 198.242 18.1523C198.144 17.739 197.927 17.3634 197.618 17.072C197.308 16.7807 196.92 16.5864 196.501 16.5133C196.082 16.4402 195.651 16.4915 195.261 16.6609C194.871 16.8302 194.54 17.1101 194.307 17.4659C194.075 17.8217 193.953 18.2377 193.955 18.6624C193.973 19.2515 194.224 19.8093 194.653 20.2135C195.082 20.6177 195.655 20.8353 196.244 20.8184ZM175.825 17.0581C175.856 16.5038 175.72 15.9531 175.434 15.477C175.148 15.0009 174.726 14.6215 174.222 14.3877C173.718 14.1539 173.155 14.0765 172.607 14.1656C172.058 14.2547 171.549 14.5061 171.145 14.8874C170.741 15.2686 170.461 15.7622 170.341 16.3042C170.221 16.8462 170.266 17.4117 170.471 17.9276C170.677 18.4435 171.032 18.886 171.492 19.198C171.951 19.51 172.494 19.677 173.05 19.6775C173.404 19.6878 173.757 19.6282 174.089 19.5021C174.42 19.376 174.723 19.1858 174.981 18.9425C175.239 18.6992 175.446 18.4076 175.591 18.0842C175.736 17.7609 175.815 17.4122 175.825 17.0581ZM168.302 18.6535C168.329 18.1955 168.217 17.74 167.982 17.3459C167.747 16.9518 167.399 16.6373 166.983 16.4432C166.566 16.2491 166.101 16.1843 165.648 16.2572C165.195 16.33 164.773 16.5372 164.439 16.8519C164.105 17.1666 163.873 17.5743 163.774 18.0221C163.674 18.47 163.711 18.9374 163.881 19.3638C164.05 19.7902 164.344 20.156 164.724 20.4137C165.104 20.6715 165.553 20.8093 166.012 20.8094C166.601 20.8239 167.172 20.6056 167.601 20.2019C168.029 19.7982 168.281 19.2417 168.302 18.6535Z" fill="white"/>
<path d="M9.67015 66.3509C9.82029 66.3695 9.97269 66.354 10.116 66.3054C10.2592 66.2569 10.3896 66.1766 10.4974 66.0707C10.6515 65.8468 10.7274 65.5784 10.7133 65.3071V46.8922H3.40924C3.00262 46.8591 2.59491 46.9413 2.23298 47.1293C2.10557 47.2389 2.00723 47.3783 1.94668 47.535C1.88613 47.6917 1.86519 47.8609 1.88581 48.0276H1.36426V42.9073H1.88581C1.88581 43.6565 2.39304 44.0338 3.40924 44.0338H21.6721C22.6865 44.0338 23.1937 43.6565 23.1937 42.9073H23.7171V48.0276H23.1937C23.2151 47.8609 23.1946 47.6914 23.134 47.5345C23.0734 47.3777 22.9746 47.2384 22.8466 47.1293C22.4853 46.9411 22.0781 46.8589 21.6721 46.8922H14.3681V65.3071C14.3523 65.5786 14.4283 65.8475 14.5839 66.0707C14.6914 66.1771 14.8218 66.2576 14.9651 66.3062C15.1085 66.3548 15.261 66.3701 15.4112 66.3509V66.8701H9.67015V66.3509Z" fill="white"/>
<path d="M54.3268 66.0708C54.4346 66.1769 54.565 66.2572 54.7083 66.3058C54.8516 66.3543 55.0041 66.3698 55.1542 66.3511V66.8721H49.4131V66.3511C49.563 66.37 49.7151 66.3545 49.8581 66.3059C50.0012 66.2574 50.1313 66.177 50.2386 66.0708C50.3937 65.848 50.4709 65.5802 50.4581 65.3091V56.6226H35.0622V65.3091C35.0485 65.5803 35.1257 65.8483 35.2816 66.0708C35.3885 66.1771 35.5182 66.2575 35.661 66.3061C35.8038 66.3547 35.9558 66.3701 36.1054 66.3511V66.8721H30.3643V66.3511C30.5144 66.3701 30.6669 66.3547 30.8103 66.3062C30.9536 66.2576 31.084 66.1772 31.1916 66.0708C31.3475 65.8483 31.4246 65.5803 31.411 65.3091V45.588C31.4246 45.3174 31.3475 45.0499 31.1916 44.8281C31.0841 44.7216 30.9537 44.6408 30.8104 44.5919C30.6671 44.5431 30.5145 44.5274 30.3643 44.546V44.025H36.1054V44.546C35.9556 44.5273 35.8035 44.5429 35.6608 44.5918C35.518 44.6407 35.3884 44.7215 35.2816 44.8281C35.1258 45.0499 35.0485 45.3174 35.0622 45.588V53.7553H50.4581V45.588C50.4709 45.3175 50.3937 45.0503 50.2386 44.8281C50.1314 44.7217 50.0014 44.6411 49.8584 44.5922C49.7153 44.5434 49.5631 44.5276 49.4131 44.546V44.025H55.1542V44.546C55.0039 44.5276 54.8514 44.5433 54.7081 44.5922C54.5648 44.641 54.4344 44.7217 54.3268 44.8281C54.1716 45.0501 54.0951 45.3176 54.1092 45.588V65.3091C54.0951 65.5801 54.1716 65.8481 54.3268 66.0708Z" fill="white"/>
<path d="M64.7589 44.8297C64.652 44.7223 64.5218 44.6409 64.3783 44.5916C64.2349 44.5424 64.0821 44.5268 63.9316 44.5459V44.0248H82.1531C82.6415 44.0699 83.1338 44.0023 83.5919 43.8272C83.6981 43.7525 83.7824 43.6508 83.8362 43.5327C83.8899 43.4146 83.9111 43.2843 83.8977 43.1553H84.4211V48.1084H83.8977C83.9077 47.9426 83.8818 47.7766 83.8219 47.6216C83.762 47.4666 83.6695 47.3263 83.5506 47.2101C83.1541 46.9445 82.6759 46.8286 82.2016 46.8832H68.6313V53.7461H77.4588C77.9009 53.7624 78.3405 53.6731 78.7411 53.4856C78.9092 53.3922 79.0463 53.2518 79.1358 53.0817C79.2252 52.9117 79.2631 52.7193 79.2448 52.528H79.7682V57.7848H79.2448C79.263 57.6119 79.2365 57.4372 79.1678 57.2774C79.0992 57.1176 78.9907 56.9781 78.8526 56.8722C78.4504 56.6667 77.999 56.5771 77.5487 56.6134H68.6313V63.9956H83.1567C83.6291 64.0314 84.1009 63.9183 84.5056 63.6722C84.6635 63.5279 84.7851 63.3484 84.8604 63.1482C84.9357 62.9481 84.9627 62.7331 84.9391 62.5206H85.4607V67.6894H84.9391C84.9391 67.1396 84.4355 66.8611 83.4211 66.8611H63.9388V66.3419C64.0889 66.3607 64.2414 66.3452 64.3847 66.2966C64.528 66.2481 64.6584 66.1677 64.7662 66.0617C64.92 65.8384 64.9959 65.5706 64.982 65.2999V45.5878C64.9962 45.3182 64.9202 45.0515 64.7662 44.8297" fill="white"/>
<path d="M129.558 63.7461C129.48 63.6489 129.38 63.571 129.267 63.5184C129.154 63.4657 129.03 63.4397 128.905 63.4425C128.564 63.5536 128.255 63.7474 128.006 64.0067C127.41 64.4856 126.77 64.9067 126.094 65.2642C125.093 65.7859 124.036 66.1921 122.943 66.4752C121.422 66.8563 119.856 67.034 118.288 67.0034C116.394 67.0271 114.51 66.7344 112.713 66.1374C111.119 65.6045 109.651 64.7543 108.396 63.6383C107.198 62.5619 106.242 61.2442 105.59 59.7721C104.914 58.2325 104.572 56.5668 104.588 54.8854C104.585 53.4292 104.905 51.9903 105.526 50.6724C106.166 49.316 107.085 48.1095 108.223 47.1314C109.479 46.0563 110.924 45.2241 112.484 44.6773C114.294 44.0465 116.201 43.7381 118.117 43.7664C119.417 43.7519 120.715 43.876 121.988 44.1364C122.988 44.3455 123.975 44.6137 124.943 44.9396C125.782 45.2282 126.471 45.4959 127.008 45.7426C127.353 45.9288 127.729 46.0534 128.118 46.1109C128.348 46.1109 128.493 46.075 128.553 46.0049C128.612 45.9348 128.684 45.8378 128.769 45.7193L129.292 46.0678L126.594 50.7156L126.026 50.4568C126.099 50.3829 126.157 50.2947 126.194 50.1976C126.232 50.1005 126.249 49.9967 126.245 49.8927C126.245 49.6591 126.026 49.3645 125.591 48.9944C125.048 48.5673 124.448 48.2168 123.81 47.9524C122.953 47.5843 122.065 47.2933 121.157 47.0829C120.087 46.8302 118.992 46.706 117.893 46.7128C116.708 46.717 115.531 46.885 114.393 47.2122C113.262 47.5239 112.2 48.0462 111.263 48.7519C110.259 49.5145 109.453 50.5066 108.911 51.6447C108.37 52.7829 108.11 54.034 108.153 55.2932C108.142 56.5416 108.451 57.772 109.053 58.8666C109.645 59.9495 110.451 60.9007 111.423 61.6621C112.434 62.4569 113.573 63.073 114.792 63.4838C116.044 63.9132 117.36 64.1318 118.684 64.1306C119.695 64.1371 120.701 63.9837 121.664 63.6761C122.537 63.4034 123.375 63.0314 124.162 62.5676C124.797 62.203 125.381 61.7587 125.902 61.2453C126.245 60.9656 126.477 60.5725 126.556 60.1368C126.564 60.0258 126.548 59.9145 126.511 59.8097C126.473 59.705 126.415 59.609 126.339 59.5278L126.905 59.181L130.123 63.3509L129.558 63.7461Z" fill="white"/>
<path d="M152.127 54.0155C153.453 54.1453 154.781 53.7904 155.864 53.0166C156.23 52.6646 156.516 52.238 156.702 51.7659C156.888 51.2937 156.971 50.7871 156.944 50.2804C156.957 49.7795 156.885 49.2801 156.729 48.8036C156.579 48.3913 156.305 48.0351 155.945 47.7831C155.48 47.4732 154.954 47.2656 154.402 47.1741C153.577 47.0288 152.74 46.9632 151.902 46.9783H142.602V54.0155H152.127ZM142.821 66.0705C142.929 66.1769 143.059 66.2575 143.202 66.3061C143.346 66.3546 143.498 66.3699 143.648 66.3508V66.8718H137.907V66.3508C138.057 66.3696 138.209 66.3542 138.351 66.3056C138.494 66.2571 138.624 66.1767 138.731 66.0705C138.888 65.8486 138.966 65.5803 138.952 65.3088V45.5877C138.966 45.3168 138.888 45.049 138.731 44.8278C138.624 44.7213 138.494 44.6406 138.352 44.5917C138.209 44.5429 138.057 44.5271 137.907 44.5457V44.0247H152.476C154.662 43.827 156.849 44.4038 158.652 45.6542C159.292 46.2528 159.792 46.9858 160.115 47.8003C160.438 48.6148 160.576 49.4906 160.519 50.3648C160.602 51.9424 160.088 53.4935 159.08 54.7108C157.808 55.9276 156.143 56.6512 154.384 56.7516L159.863 65.2225C160.074 65.5602 160.33 65.8678 160.623 66.137C160.905 66.3041 161.232 66.3789 161.559 66.3508V66.8718H155.298V66.3508C155.541 66.3717 155.786 66.3417 156.017 66.2627C156.069 66.2316 156.111 66.1862 156.137 66.1321C156.164 66.078 156.175 66.0174 156.168 65.9574C156.167 65.8677 156.147 65.7793 156.11 65.6977C156.073 65.6161 156.019 65.543 155.952 65.4831L150.605 56.9672H142.602V65.3088C142.588 65.58 142.665 65.848 142.821 66.0705Z" fill="white"/>
<path d="M173.629 49.0357C172.072 50.8014 171.213 53.0734 171.213 55.4262C171.213 57.7789 172.072 60.0509 173.629 61.8166C175.594 63.3208 178.001 64.136 180.477 64.136C182.953 64.136 185.36 63.3208 187.325 61.8166C188.881 60.0504 189.739 57.7786 189.739 55.4262C189.739 53.0738 188.881 50.8019 187.325 49.0357C185.359 47.5326 182.953 46.7181 180.477 46.7181C178.001 46.7181 175.595 47.5326 173.629 49.0357ZM185.696 44.5245C187.217 44.994 188.629 45.7638 189.847 46.7882C191.025 47.791 191.962 49.0462 192.588 50.4604C193.895 53.6627 193.895 57.2489 192.588 60.4512C191.966 61.8613 191.028 63.1097 189.847 64.1C188.63 65.1089 187.216 65.8547 185.696 66.2901C182.284 67.2473 178.675 67.2473 175.264 66.2901C173.743 65.8547 172.33 65.1089 171.113 64.1C169.933 63.1086 168.996 61.8605 168.373 60.4512C167.069 57.2484 167.069 53.6632 168.373 50.4604C168.998 49.0475 169.933 47.7926 171.107 46.7882C172.326 45.7663 173.738 44.999 175.258 44.5317C178.662 43.5171 182.287 43.5171 185.69 44.5317" fill="white"/>
<path d="M205.392 66.3509C205.644 66.3803 205.9 66.3425 206.133 66.2413C206.18 66.1948 206.216 66.1385 206.239 66.0763C206.262 66.0142 206.27 65.9478 206.264 65.8819C206.259 65.6527 206.215 65.426 206.133 65.2118C206.045 64.9621 205.975 64.7393 205.917 64.5363L198.958 46.0315C198.834 45.6344 198.644 45.2609 198.395 44.9266C198.281 44.7987 198.139 44.6988 197.98 44.6346C197.821 44.5704 197.649 44.5437 197.478 44.5565V44.0338H203.178V44.5565C202.911 44.5298 202.642 44.593 202.415 44.7362C202.349 44.7969 202.298 44.8713 202.264 44.9542C202.23 45.0372 202.216 45.1266 202.221 45.2159C202.229 45.4196 202.281 45.6192 202.372 45.8015C202.473 46.0189 202.584 46.2741 202.697 46.5615L208.568 62.287H208.654L214.48 45.7351C214.56 45.527 214.605 45.3073 214.613 45.0847C214.613 44.7362 214.394 44.5655 213.96 44.5655V44.0427H220.003V44.5655C219.482 44.5655 219.223 44.7452 219.223 45.1278C219.233 45.3139 219.277 45.4966 219.352 45.6668C219.439 45.886 219.532 46.1106 219.611 46.3406L225.266 61.7606H225.352L231.135 46.1303C231.185 45.9604 231.245 45.7936 231.315 45.6309C231.375 45.4863 231.404 45.331 231.401 45.1745C231.401 44.7685 231.083 44.5673 230.446 44.5673V44.0445H235.925V44.5673C235.773 44.5537 235.621 44.5735 235.478 44.6254C235.335 44.6772 235.205 44.7598 235.097 44.8673C234.839 45.2282 234.634 45.6238 234.488 46.0423L227.664 64.459C227.516 64.8345 227.401 65.1274 227.304 65.3268C227.219 65.5336 227.175 65.7553 227.176 65.979C227.176 66.2431 227.466 66.3706 228.045 66.3706V66.8898H222.315V66.3706C222.56 66.3962 222.808 66.3585 223.034 66.261C223.086 66.2255 223.127 66.1771 223.154 66.1207C223.181 66.0643 223.193 66.0018 223.189 65.9394C223.177 65.6903 223.116 65.4461 223.009 65.2208C222.892 64.9423 222.793 64.6818 222.705 64.4572L216.879 48.6474H216.791L210.962 64.892C210.906 65.0717 210.847 65.2351 210.782 65.3932C210.724 65.5668 210.696 65.7492 210.699 65.9322C210.699 66.2179 210.984 66.3634 211.563 66.3634V66.8826H205.388L205.392 66.3509Z" fill="white"/>
<path d="M262.359 61.1356V45.588C262.372 45.3185 262.296 45.0521 262.143 44.8299C262.036 44.7226 261.905 44.6412 261.761 44.592C261.617 44.5428 261.464 44.5271 261.314 44.546V44.025H266.53V44.546C266.38 44.5269 266.227 44.5424 266.085 44.5917C265.942 44.6409 265.812 44.7224 265.706 44.8299C265.55 45.0509 265.473 45.3179 265.486 45.588V65.3055C265.472 65.5779 265.55 65.8472 265.706 66.0708C265.813 66.177 265.943 66.2574 266.085 66.3059C266.228 66.3545 266.38 66.37 266.53 66.3511V66.8703H260.967V66.3511C261.548 66.3511 261.839 66.2344 261.839 66.0044C261.845 65.8211 261.781 65.6424 261.659 65.5049C261.566 65.4025 261.479 65.2945 261.398 65.1816L245.918 47.5876V65.3055C245.902 65.5778 245.979 65.8474 246.135 66.0708C246.243 66.1772 246.373 66.2578 246.516 66.3063C246.659 66.3549 246.811 66.3702 246.961 66.3511V66.8703H241.745V66.3511C241.895 66.3704 242.047 66.3551 242.19 66.3065C242.332 66.2579 242.462 66.1773 242.569 66.0708C242.727 65.8478 242.805 65.5782 242.79 65.3055V45.588C242.804 45.3176 242.726 45.0503 242.569 44.8299C242.463 44.7222 242.333 44.6405 242.19 44.5913C242.047 44.542 241.895 44.5266 241.745 44.546V44.025H249.094V44.546C248.871 44.5273 248.647 44.5649 248.443 44.6556C248.383 44.6937 248.335 44.7472 248.304 44.8105C248.272 44.8737 248.258 44.9444 248.263 45.0149C248.268 45.1182 248.305 45.2174 248.369 45.2988C248.442 45.3987 248.522 45.493 248.608 45.5809L262.262 61.1284L262.359 61.1356Z" fill="white"/>
<path d="M288.711 66.3511C288.862 66.3696 289.014 66.354 289.157 66.3055C289.3 66.2569 289.431 66.1767 289.539 66.0708C289.691 65.8464 289.767 65.5783 289.753 65.3073V45.5898C289.766 45.32 289.691 45.0531 289.539 44.8299C289.432 44.723 289.301 44.6421 289.158 44.5932C289.014 44.5443 288.862 44.5288 288.711 44.5478V44.025H294.453V44.5478C294.302 44.5278 294.15 44.5429 294.007 44.5918C293.863 44.6408 293.733 44.7223 293.627 44.8299C293.47 45.0511 293.392 45.3189 293.406 45.5898V65.3073C293.392 65.5794 293.469 65.8484 293.627 66.0708C293.734 66.1775 293.864 66.2581 294.007 66.3067C294.15 66.3553 294.303 66.3705 294.453 66.3511V66.8703H288.711V66.3511Z" fill="white"/>
<path d="M323.976 61.1356V45.588C323.99 45.3185 323.914 45.0521 323.761 44.8299C323.654 44.7226 323.523 44.6413 323.38 44.592C323.237 44.5428 323.084 44.5271 322.933 44.546V44.025H328.149V44.546C327.999 44.5272 327.846 44.543 327.703 44.5922C327.559 44.6414 327.429 44.7227 327.322 44.8299C327.168 45.0517 327.092 45.3184 327.106 45.588V65.3055C327.092 65.5774 327.167 65.8464 327.322 66.0708C327.43 66.1767 327.56 66.2569 327.703 66.3055C327.847 66.354 327.999 66.3696 328.149 66.3511V66.8703H322.586V66.3511C323.164 66.3511 323.455 66.2344 323.455 66.0044C323.461 65.8211 323.397 65.6424 323.275 65.5049C323.182 65.4021 323.095 65.2941 323.014 65.1816L307.534 47.5876V65.3055C307.52 65.5779 307.597 65.8472 307.753 66.0708C307.86 66.1771 307.991 66.2576 308.134 66.3062C308.277 66.3547 308.429 66.3701 308.579 66.3511V66.8703H303.363V66.3511C303.513 66.3697 303.665 66.3541 303.808 66.3056C303.951 66.257 304.081 66.1768 304.188 66.0708C304.345 65.8474 304.422 65.5778 304.406 65.3055V45.588C304.421 45.318 304.345 45.0508 304.188 44.8299C304.082 44.7226 303.952 44.6413 303.809 44.592C303.666 44.5428 303.513 44.5271 303.363 44.546V44.025H310.71V44.546C310.487 44.5271 310.262 44.5648 310.057 44.6556C309.998 44.694 309.95 44.7476 309.918 44.8108C309.886 44.8739 309.872 44.9444 309.877 45.0149C309.882 45.1182 309.919 45.2174 309.983 45.2988C310.055 45.3987 310.135 45.493 310.221 45.5809L323.877 61.1284L323.976 61.1356Z" fill="white"/>
<path d="M357.808 61.1356V45.588C357.821 45.3185 357.745 45.0521 357.592 44.8299C357.485 44.7225 357.354 44.641 357.21 44.5918C357.067 44.5426 356.914 44.527 356.763 44.546V44.025H361.979V44.546C361.829 44.5268 361.676 44.5424 361.533 44.5917C361.39 44.6409 361.26 44.7224 361.153 44.8299C360.999 45.0515 360.922 45.3182 360.936 45.588V65.3055C360.922 65.5776 360.998 65.8466 361.153 66.0708C361.261 66.177 361.391 66.2574 361.534 66.3059C361.677 66.3545 361.829 66.37 361.979 66.3511V66.8703H356.403V66.3511C356.986 66.3511 357.275 66.2344 357.275 66.0044C357.281 65.8211 357.217 65.6424 357.096 65.5049C357.003 65.4021 356.917 65.2942 356.837 65.1816L341.354 47.5876V65.3055C341.34 65.5777 341.416 65.847 341.572 66.0708C341.679 66.177 341.809 66.2574 341.952 66.3059C342.095 66.3545 342.248 66.37 342.397 66.3511V66.8703H337.182V66.3511C337.332 66.3696 337.484 66.354 337.627 66.3055C337.771 66.2569 337.901 66.1767 338.009 66.0708C338.165 65.8472 338.243 65.5779 338.228 65.3055V45.588C338.242 45.3179 338.165 45.0509 338.009 44.8299C337.902 44.7227 337.772 44.6414 337.628 44.5922C337.485 44.543 337.332 44.5272 337.182 44.546V44.025H344.531V44.546C344.308 44.5271 344.084 44.5647 343.88 44.6556C343.82 44.6942 343.773 44.7479 343.741 44.811C343.709 44.8742 343.695 44.9445 343.7 45.0149C343.708 45.1179 343.745 45.2164 343.808 45.2988C343.881 45.3992 343.962 45.4935 344.05 45.5809L357.705 61.1284L357.808 61.1356Z" fill="white"/>
<path d="M107.626 104.541C107.584 104.489 107.531 104.448 107.471 104.419C107.411 104.391 107.345 104.378 107.279 104.379C107.202 104.379 107.045 104.481 106.802 104.683C106.485 104.936 106.145 105.16 105.786 105.349C105.252 105.627 104.689 105.845 104.106 105.998C103.294 106.2 102.459 106.294 101.622 106.278C100.615 106.29 99.6121 106.134 98.6564 105.814C97.8051 105.532 97.0205 105.079 96.3507 104.483C95.7118 103.911 95.2018 103.21 94.8543 102.426C94.4921 101.604 94.3081 100.715 94.3146 99.8175C94.3119 99.0413 94.4822 98.2742 94.8129 97.5718C95.1552 96.8494 95.6453 96.2067 96.2517 95.6853C96.9217 95.1117 97.6926 94.6676 98.5251 94.3756C99.4895 94.0394 100.506 93.8753 101.527 93.8906C102.219 93.8829 102.91 93.9491 103.588 94.0882C104.122 94.1981 104.649 94.3409 105.166 94.5157C105.54 94.6394 105.908 94.7828 106.268 94.9451C106.453 95.0437 106.653 95.1099 106.86 95.141C106.982 95.141 107.059 95.123 107.09 95.0816C107.121 95.0403 107.157 94.9936 107.207 94.9325L107.486 95.1122L106.047 97.5915L105.745 97.4514C105.783 97.4122 105.813 97.3654 105.833 97.3141C105.853 97.2628 105.862 97.208 105.86 97.1531C105.86 97.0274 105.745 96.8711 105.515 96.6752C105.223 96.4479 104.903 96.2611 104.561 96.1201C104.104 95.9248 103.631 95.7692 103.147 95.6548C102.578 95.5232 101.995 95.458 101.41 95.4607C100.778 95.4622 100.15 95.5517 99.5432 95.7266C98.9394 95.8927 98.3725 96.1713 97.8723 96.5477C97.3382 96.9545 96.9093 97.4828 96.6211 98.0888C96.333 98.6948 96.194 99.3607 96.2157 100.031C96.2081 100.698 96.373 101.355 96.6943 101.939C97.0093 102.516 97.4374 103.023 97.9532 103.43C98.4934 103.853 99.1016 104.18 99.7518 104.399C100.42 104.628 101.121 104.745 101.827 104.745C102.367 104.749 102.904 104.667 103.417 104.503C103.882 104.358 104.328 104.161 104.748 103.915C105.085 103.718 105.397 103.479 105.676 103.206C105.859 103.056 105.982 102.847 106.023 102.615C106.027 102.556 106.018 102.498 105.999 102.442C105.979 102.387 105.948 102.336 105.908 102.293L106.209 102.113L107.926 104.338L107.626 104.541Z" fill="white"/>
<path d="M124.849 105.78C124.907 105.837 124.976 105.88 125.052 105.906C125.129 105.932 125.21 105.94 125.29 105.929V106.21H122.232V105.929C122.313 105.94 122.395 105.933 122.472 105.907C122.549 105.881 122.619 105.838 122.677 105.78C122.759 105.662 122.8 105.519 122.792 105.374V100.744H114.579V105.374C114.571 105.519 114.612 105.662 114.696 105.78C114.753 105.837 114.822 105.88 114.898 105.906C114.974 105.932 115.056 105.94 115.135 105.929V106.21H112.078V105.929C112.158 105.94 112.239 105.933 112.316 105.907C112.392 105.881 112.461 105.838 112.518 105.78C112.602 105.662 112.644 105.519 112.635 105.374V94.8624C112.643 94.7178 112.602 94.5749 112.518 94.4565C112.461 94.4003 112.391 94.3578 112.315 94.332C112.239 94.3062 112.158 94.2978 112.078 94.3073V94.0288H115.135V94.3073C115.056 94.2981 114.975 94.3066 114.899 94.3324C114.823 94.3582 114.754 94.4006 114.696 94.4565C114.613 94.5749 114.572 94.7178 114.579 94.8624V99.2156H122.786V94.8624C122.794 94.7181 122.753 94.5754 122.671 94.4565C122.613 94.3998 122.543 94.3569 122.466 94.3311C122.389 94.3053 122.308 94.2972 122.227 94.3073V94.0288H125.285V94.3073C125.205 94.2978 125.124 94.3062 125.047 94.332C124.971 94.3578 124.902 94.4003 124.844 94.4565C124.763 94.5758 124.722 94.7182 124.729 94.8624V105.374C124.722 105.518 124.762 105.661 124.844 105.78" fill="white"/>
<path d="M130.021 105.93C130.1 105.94 130.182 105.932 130.258 105.906C130.334 105.88 130.404 105.837 130.461 105.781C130.544 105.662 130.585 105.519 130.578 105.374V94.8627C130.584 94.7183 130.543 94.5759 130.461 94.4567C130.404 94.4003 130.334 94.3574 130.258 94.3313C130.182 94.3052 130.101 94.2964 130.021 94.3058V94.0381H133.078V94.313C132.998 94.3034 132.916 94.312 132.84 94.3381C132.763 94.3642 132.693 94.4072 132.636 94.4639C132.556 94.584 132.517 94.7262 132.524 94.8699V105.382C132.517 105.526 132.556 105.668 132.636 105.788C132.693 105.844 132.763 105.887 132.84 105.913C132.916 105.938 132.998 105.947 133.078 105.937V106.217H130.021V105.93Z" fill="white"/>
<path d="M144.783 104.679C145.347 104.722 145.912 104.64 146.441 104.44C146.969 104.24 147.447 103.927 147.841 103.522C148.588 102.551 148.951 101.339 148.862 100.118C148.907 99.5007 148.826 98.8812 148.625 98.2963C148.423 97.7115 148.105 97.1735 147.69 96.7148C147.241 96.3096 146.716 95.9983 146.144 95.7993C145.573 95.6003 144.968 95.5176 144.364 95.5561H139.868V104.679H144.783ZM137.808 94.4583C137.752 94.4008 137.682 94.3571 137.606 94.3306C137.529 94.3041 137.448 94.2955 137.368 94.3056V94.0379H144.562C145.444 94.0242 146.32 94.1765 147.145 94.487C147.876 94.7635 148.539 95.1922 149.091 95.7447C149.633 96.2981 150.055 96.9567 150.332 97.6796C150.63 98.459 150.779 99.2869 150.773 100.121C150.782 100.951 150.656 101.777 150.4 102.566C150.173 103.28 149.798 103.938 149.3 104.498C148.801 105.046 148.187 105.475 147.501 105.755C146.708 106.07 145.861 106.224 145.008 106.208H137.368V105.929C137.448 105.94 137.529 105.931 137.606 105.905C137.682 105.879 137.751 105.836 137.808 105.779C137.891 105.66 137.932 105.517 137.923 105.373V94.859C137.93 94.7159 137.89 94.5744 137.808 94.4566" fill="white"/>
<path d="M161.522 104.679C162.086 104.721 162.652 104.639 163.18 104.439C163.708 104.24 164.186 103.926 164.58 103.522C165.323 102.549 165.685 101.338 165.596 100.118C165.641 99.5009 165.561 98.8814 165.359 98.2966C165.158 97.7118 164.84 97.1736 164.425 96.7148C163.977 96.3095 163.451 95.9982 162.88 95.7992C162.309 95.6002 161.704 95.5175 161.1 95.5561H156.603V104.679H161.522ZM154.544 94.4583C154.486 94.4013 154.417 94.358 154.34 94.3316C154.264 94.3051 154.182 94.2962 154.102 94.3056V94.0379H161.296C162.178 94.024 163.055 94.1763 163.88 94.4871C164.612 94.7631 165.276 95.1919 165.828 95.7447C166.369 96.2991 166.791 96.9574 167.069 97.6797C167.367 98.4591 167.515 99.2871 167.508 100.121C167.517 100.951 167.392 101.776 167.138 102.566C166.911 103.281 166.535 103.939 166.035 104.498C165.537 105.046 164.923 105.475 164.237 105.755C163.443 106.07 162.595 106.224 161.742 106.208H154.118V105.93C154.198 105.939 154.28 105.931 154.356 105.904C154.433 105.878 154.503 105.835 154.56 105.779C154.642 105.66 154.683 105.517 154.675 105.373V94.859C154.682 94.716 154.641 94.5748 154.56 94.4566" fill="white"/>
<path d="M171.211 105.93C171.291 105.94 171.372 105.932 171.448 105.906C171.524 105.881 171.594 105.838 171.65 105.781C171.734 105.662 171.775 105.519 171.767 105.374V94.8627C171.774 94.7182 171.733 94.5755 171.65 94.4567C171.593 94.4006 171.524 94.3578 171.448 94.3317C171.372 94.3056 171.291 94.2967 171.211 94.3058V94.0381H174.269V94.313C174.189 94.3039 174.108 94.3128 174.032 94.3389C173.957 94.365 173.887 94.4077 173.83 94.4639C173.747 94.5825 173.707 94.7255 173.715 94.8699V105.382C173.706 105.526 173.747 105.669 173.83 105.788C173.887 105.845 173.956 105.888 174.032 105.914C174.108 105.94 174.189 105.947 174.269 105.937V106.217H171.211V105.93Z" fill="white"/>
<path d="M190.009 103.152V94.8623C190.017 94.7184 189.977 94.576 189.894 94.4581C189.837 94.4004 189.768 94.3566 189.691 94.3301C189.615 94.3036 189.533 94.2951 189.453 94.3054V94.0287H192.235V94.3054C192.155 94.2948 192.073 94.3031 191.997 94.3296C191.92 94.3561 191.851 94.4002 191.795 94.4581C191.713 94.5765 191.671 94.7184 191.678 94.8623V105.372C191.671 105.517 191.712 105.66 191.795 105.778C191.851 105.837 191.92 105.881 191.997 105.907C192.073 105.934 192.155 105.942 192.235 105.931V106.208H189.268V105.931C189.575 105.931 189.732 105.87 189.732 105.751C189.735 105.654 189.702 105.559 189.64 105.484C189.589 105.427 189.542 105.367 189.5 105.304L181.246 95.926V105.371C181.238 105.515 181.279 105.658 181.361 105.777C181.418 105.834 181.488 105.878 181.564 105.905C181.641 105.931 181.723 105.94 181.803 105.929V106.206H179.021V105.929C179.101 105.94 179.183 105.932 179.259 105.905C179.336 105.879 179.405 105.835 179.462 105.777C179.546 105.658 179.588 105.515 179.58 105.371V94.8606C179.587 94.7164 179.545 94.5741 179.462 94.4564C179.405 94.3987 179.336 94.3549 179.259 94.3284C179.183 94.3019 179.101 94.2935 179.021 94.3036V94.027H182.94V94.3036C182.817 94.2916 182.693 94.3127 182.58 94.3647C182.549 94.386 182.524 94.4151 182.508 94.4493C182.492 94.4834 182.485 94.5212 182.489 94.5588C182.493 94.6152 182.515 94.669 182.55 94.7133C182.588 94.7653 182.63 94.8145 182.676 94.8606L189.955 103.15L190.009 103.152Z" fill="white"/>
<path d="M203.789 102.134H203.509V99.4028H203.789C203.789 99.8645 204.057 100.094 204.601 100.094H209.583V100.373C209.522 100.365 209.461 100.37 209.403 100.388C209.345 100.406 209.291 100.436 209.246 100.477C209.176 100.632 209.149 100.804 209.167 100.973V102.989C209.148 103.165 209.181 103.343 209.261 103.501C209.346 103.59 209.46 103.647 209.583 103.662V103.941C208.573 104.766 207.412 105.387 206.165 105.77C205.125 106.089 204.045 106.26 202.957 106.278C201.998 106.287 201.043 106.147 200.128 105.863C199.305 105.608 198.542 105.194 197.879 104.645C197.239 104.114 196.726 103.447 196.377 102.692C196.028 101.937 195.853 101.114 195.865 100.283C195.855 99.4138 196.032 98.5526 196.383 97.7571C196.724 96.9935 197.213 96.3048 197.822 95.7306C198.446 95.1425 199.179 94.6822 199.98 94.3759C200.854 94.0447 201.781 93.8796 202.716 93.889C203.552 93.8732 204.388 93.9552 205.205 94.1334C205.774 94.2598 206.329 94.4403 206.863 94.6724C207.213 94.8271 207.551 95.0072 207.874 95.2113C208.037 95.3446 208.234 95.4293 208.442 95.4556C208.49 95.4605 208.538 95.4558 208.584 95.4419C208.629 95.4281 208.672 95.4053 208.709 95.3748C208.766 95.3159 208.816 95.2501 208.858 95.179L209.135 95.3586L207.516 97.7427L207.237 97.5631C207.271 97.5257 207.296 97.4818 207.312 97.4343C207.329 97.3867 207.335 97.3364 207.331 97.2863C207.331 97.1462 207.212 96.9756 206.984 96.778C206.691 96.5353 206.367 96.3323 206.021 96.1743C205.558 95.9531 205.072 95.7814 204.572 95.6622C203.983 95.5207 203.379 95.4514 202.773 95.4556C202.006 95.4385 201.243 95.5684 200.525 95.8383C199.937 96.062 199.404 96.4081 198.96 96.8534C198.556 97.2711 198.25 97.7721 198.061 98.3213C197.866 98.8853 197.768 99.478 197.771 100.075C197.757 100.762 197.895 101.445 198.176 102.072C198.428 102.626 198.792 103.121 199.244 103.528C199.688 103.922 200.203 104.227 200.762 104.426C201.334 104.633 201.938 104.739 202.547 104.737C203.473 104.752 204.396 104.62 205.28 104.345C205.996 104.132 206.669 103.798 207.271 103.357V101.611H204.61C204.07 101.611 203.798 101.781 203.798 102.121" fill="white"/>
<path d="M221.905 101.301C221.918 101.215 221.908 101.127 221.876 101.046C221.845 100.965 221.793 100.893 221.725 100.838C221.51 100.703 221.258 100.64 221.005 100.658H216.068V105.381C216.061 105.525 216.1 105.668 216.18 105.787C216.238 105.844 216.308 105.887 216.385 105.913C216.462 105.939 216.544 105.947 216.624 105.936V106.217H213.566V105.936C213.646 105.947 213.727 105.939 213.803 105.913C213.879 105.887 213.949 105.844 214.005 105.787C214.088 105.669 214.13 105.526 214.124 105.381V94.8696C214.13 94.7255 214.088 94.5836 214.005 94.4654C213.949 94.4079 213.88 94.3643 213.804 94.3381C213.727 94.3119 213.646 94.3038 213.566 94.3144V94.036H223.534C223.794 94.0591 224.055 94.0235 224.299 93.9318C224.354 93.8909 224.399 93.8364 224.427 93.7735C224.456 93.7106 224.468 93.6414 224.462 93.5725H224.741V96.2098H224.462C224.467 96.1226 224.454 96.0353 224.423 95.9535C224.392 95.8718 224.344 95.7975 224.282 95.7356C224.071 95.5937 223.816 95.5301 223.563 95.5559H216.075V99.1204H220.989C221.248 99.143 221.509 99.108 221.754 99.018C221.81 98.9776 221.854 98.923 221.883 98.8599C221.911 98.7969 221.922 98.7274 221.915 98.6586H222.194V101.298L221.905 101.301Z" fill="white"/>
<path d="M230.261 96.6989C229.432 97.6405 228.975 98.8514 228.975 100.105C228.975 101.359 229.432 102.57 230.261 103.512C231.309 104.314 232.592 104.75 233.913 104.75C235.233 104.75 236.517 104.314 237.565 103.512C238.394 102.57 238.851 101.359 238.851 100.105C238.851 98.8514 238.394 97.6405 237.565 96.6989C236.516 95.8983 235.233 95.4645 233.913 95.4645C232.593 95.4645 231.31 95.8983 230.261 96.6989ZM236.696 94.2951C237.507 94.5467 238.259 94.9565 238.91 95.5006C239.537 96.0354 240.036 96.7033 240.371 97.4553C241.064 99.1641 241.064 101.075 240.371 102.784C240.036 103.533 239.537 104.197 238.91 104.728C238.26 105.264 237.506 105.662 236.696 105.896C234.876 106.404 232.951 106.404 231.131 105.896C230.321 105.662 229.568 105.265 228.919 104.728C228.29 104.199 227.79 103.534 227.455 102.784C226.764 101.075 226.764 99.1645 227.455 97.4553C227.79 96.7023 228.291 96.0343 228.919 95.5006C229.569 94.9558 230.321 94.5459 231.131 94.2951C232.947 93.7561 234.88 93.7561 236.696 94.2951Z" fill="white"/>
<path d="M247.52 94.3055C247.439 94.2953 247.357 94.305 247.28 94.3334C247.203 94.3619 247.134 94.4083 247.08 94.469C246.993 94.6159 246.953 94.7856 246.964 94.9558V104.681H254.752C255.292 104.681 255.565 104.447 255.565 103.984H255.84V106.65H255.565C255.565 106.355 255.294 106.208 254.752 106.208H244.459V105.931C244.539 105.942 244.621 105.933 244.697 105.907C244.774 105.88 244.843 105.836 244.9 105.779C244.982 105.661 245.023 105.519 245.015 105.376V94.8606C245.022 94.7175 244.982 94.5758 244.9 94.4582C244.843 94.4006 244.774 94.3568 244.697 94.3304C244.621 94.3039 244.539 94.2953 244.459 94.3055V94.0288H247.517L247.52 94.3055Z" fill="white"/>
<path d="M265.81 104.679C266.373 104.722 266.939 104.641 267.468 104.441C267.996 104.241 268.474 103.927 268.867 103.522C269.616 102.552 269.981 101.34 269.893 100.118C269.936 99.5006 269.855 98.8813 269.653 98.2965C269.451 97.7118 269.133 97.1738 268.718 96.7148C268.269 96.3095 267.744 95.9982 267.173 95.7992C266.602 95.6001 265.996 95.5175 265.393 95.5561H260.896V104.679H265.81ZM258.831 94.4583C258.775 94.4007 258.705 94.3569 258.629 94.3305C258.552 94.304 258.471 94.2954 258.391 94.3056V94.0379H265.585C266.467 94.0242 267.344 94.1766 268.17 94.487C268.9 94.7639 269.563 95.1926 270.116 95.7447C270.657 96.2981 271.08 96.9567 271.357 97.6796C271.654 98.459 271.804 99.2869 271.797 100.121C271.804 100.951 271.679 101.776 271.425 102.566C271.197 103.28 270.822 103.938 270.324 104.498C269.824 105.047 269.206 105.477 268.517 105.755C267.724 106.07 266.877 106.224 266.024 106.208H258.398V105.929C258.478 105.94 258.559 105.932 258.636 105.905C258.712 105.879 258.782 105.836 258.838 105.779C258.923 105.661 258.964 105.517 258.955 105.373V94.859C258.963 94.7156 258.921 94.5738 258.838 94.4566" fill="white"/>
<path d="M361.84 77.9624H0.121094V80.0931H361.84V77.9624Z" fill="white"/>
</mask>
<g mask="url(#mask0_372_352)">
<rect x="-6.15918" y="35.4967" width="379.317" height="71.593" fill="white"/>
</g>
</svg>
