<?xml version="1.0" encoding="UTF-8"?> <svg xmlns="http://www.w3.org/2000/svg" width="161" height="114" viewBox="0 0 161 114" fill="none"><path d="M131.487 111.017C131.483 111.414 131.4 111.805 131.243 112.169C131.087 112.533 130.859 112.864 130.574 113.14C130.289 113.417 129.952 113.636 129.582 113.783C129.212 113.931 128.816 114.004 128.417 113.999C128.417 113.999 102.605 109.663 80.7067 109.663C58.7944 109.663 32.9825 113.999 32.9825 113.999C32.1794 114.005 31.4066 113.695 30.8334 113.136C30.2602 112.577 29.9333 111.815 29.9244 111.017V110.972C29.9377 110.177 30.2663 109.418 30.8389 108.862C31.4114 108.306 32.1817 107.997 32.9825 108.001C32.9825 108.001 47.8991 103.347 80.7075 103.347C113.516 103.347 128.418 108.001 128.418 108.001C129.221 107.993 129.994 108.302 130.569 108.858C131.144 109.415 131.475 110.175 131.488 110.972L131.487 111.017ZM161 44.275C160.939 46.5459 159.973 48.6999 158.315 50.2641C156.657 51.8283 154.442 52.675 152.156 52.6181C151.259 52.619 150.367 52.4883 149.509 52.2304C145.808 58.3201 128.554 80.8677 128.554 97.3483C128.554 97.3483 131.487 98.8498 131.487 100.683C131.511 101.486 131.218 102.267 130.669 102.858C130.121 103.45 129.362 103.804 128.554 103.847C127.066 103.847 103.339 99.2493 80.4997 99.2493C57.6607 99.2493 33.9338 103.847 32.4453 103.847C31.6374 103.805 30.8782 103.451 30.3307 102.859C29.7832 102.267 29.4912 101.486 29.5172 100.683C29.5172 98.8498 32.4453 97.3483 32.4453 97.3483C32.4453 80.8677 15.1853 58.3226 11.4792 52.2304C10.6269 52.4878 9.741 52.6185 8.85021 52.6181C7.21077 52.5325 5.63253 51.9713 4.31068 51.0041C2.98884 50.0369 1.98134 48.7059 1.41279 47.1759C0.844233 45.6459 0.739522 43.9838 1.11166 42.3953C1.4838 40.8068 2.31645 39.3615 3.50662 38.2381C4.6968 37.1147 6.19233 36.3625 7.80824 36.0745C9.42416 35.7865 11.0895 35.9754 12.5986 36.6177C14.1076 37.26 15.3941 38.3276 16.2989 39.6886C17.2036 41.0495 17.687 42.6441 17.6893 44.275C17.6853 45.449 17.4238 46.608 16.9231 47.6715C16.4224 48.7349 15.6945 49.6771 14.79 50.4327C18.7765 55.3953 31.9519 70.8964 40.8138 70.8964C47.4809 70.8964 47.2867 63.0074 43.1168 30.9475H42.6698C37.0274 30.9475 32.4478 26.6455 32.4478 21.3195C32.4478 15.9935 37.03 11.6898 42.6698 11.6898C48.3097 11.6898 52.9003 16.0036 52.9003 21.3195C52.8766 23.1557 52.3234 24.9467 51.3061 26.4799C50.2887 28.0131 48.8501 29.2243 47.1608 29.9698C50.85 39.5189 61.2578 64.9788 66.4313 63.0787C72.0272 61.0301 77.2059 32.7234 78.3751 21.0115C75.9583 20.6267 73.7429 19.4432 72.0872 17.6525C70.4314 15.8617 69.4322 13.5683 69.2512 11.1434C69.2512 10.9613 69.2454 10.7792 69.2454 10.6088C69.2454 10.4149 69.2512 10.2328 69.2512 10.0625C69.5545 4.45114 74.4696 0.00137329 80.5014 0.00137329C86.5222 0.00137329 91.4432 4.44946 91.7372 10.0625C91.7431 10.2303 91.7549 10.4149 91.7549 10.6088C91.7549 10.7767 91.7431 10.9613 91.7372 11.1434C91.5569 13.5686 90.5579 15.8623 88.9021 17.6532C87.2462 19.4442 85.0304 20.6274 82.6134 21.0115C83.7826 32.7234 88.9604 61.0301 94.5571 63.0787C99.7298 64.9788 110.144 39.5189 113.845 29.9698C112.151 29.2288 110.708 28.019 109.688 26.485C108.668 24.9511 108.115 23.1578 108.093 21.3195C108.093 16.0036 112.675 11.6898 118.336 11.6898C123.972 11.6898 128.557 16.0036 128.557 21.3195C128.557 26.6354 123.975 30.9475 118.336 30.9475H117.878C113.708 63.0074 113.513 70.8964 120.17 70.8964C129.06 70.8964 142.212 55.3953 146.199 50.4327C145.295 49.6772 144.567 48.735 144.066 47.6716C143.565 46.6081 143.304 45.449 143.3 44.275C143.3 39.6767 147.266 35.9554 152.157 35.9554C154.44 35.8949 156.653 36.7372 158.312 38.2971C159.97 39.8571 160.937 42.0072 161 44.275ZM12.5444 44.275C12.5845 43.5365 12.4005 42.8031 12.0161 42.1697C11.6318 41.5363 11.0649 41.0322 10.3888 40.7225C9.71275 40.4129 8.95875 40.3121 8.22435 40.4332C7.48995 40.5543 6.80903 40.8916 6.26984 41.4015C5.73065 41.9115 5.35795 42.5705 5.20013 43.2933C5.0423 44.016 5.10659 44.7692 5.38462 45.4553C5.66264 46.1413 6.14158 46.7286 6.75947 47.1412C7.37736 47.5537 8.10578 47.7723 8.85021 47.7689C9.32391 47.7813 9.79538 47.7006 10.2376 47.5316C10.6799 47.3626 11.0843 47.1085 11.4275 46.7839C11.7707 46.4593 12.046 46.0706 12.2376 45.6401C12.4293 45.2095 12.5336 44.7456 12.5444 44.275ZM47.0121 21.3186C47.0574 20.4553 46.8409 19.5983 46.3909 18.8583C45.9408 18.1184 45.2777 17.5295 44.4873 17.1679C43.6968 16.8062 42.8154 16.6884 41.9568 16.8295C41.0983 16.9707 40.3021 17.3644 39.6711 17.9598C39.0401 18.5552 38.6033 19.3249 38.4172 20.1695C38.2311 21.014 38.3042 21.8946 38.6271 22.6974C38.95 23.5003 39.5079 24.1884 40.2286 24.6731C40.9492 25.1577 41.7996 25.4164 42.6698 25.4159C43.2258 25.4303 43.7792 25.3358 44.2984 25.1376C44.8175 24.9395 45.2922 24.6416 45.6955 24.2611C46.0987 23.8806 46.4226 23.4249 46.6485 22.92C46.8744 22.4151 46.9979 21.871 47.0121 21.3186ZM80.4997 15.8886C81.5403 15.8331 82.5416 15.4758 83.3799 14.8608C84.2181 14.2458 84.8565 13.4002 85.216 12.4285C85.5755 11.4568 85.6403 10.4018 85.4025 9.39384C85.1646 8.38593 84.6346 7.46943 83.8779 6.7577C83.1211 6.04597 82.1709 5.57027 81.1449 5.38945C80.1188 5.20864 79.0619 5.33066 78.105 5.74039C77.148 6.15013 76.333 6.8296 75.7607 7.69475C75.1885 8.5599 74.8841 9.57275 74.8852 10.608C74.9277 12.047 75.5423 13.4106 76.5946 14.4003C77.6469 15.3901 79.0511 15.9252 80.4997 15.8886ZM113.981 21.3186C113.934 22.1814 114.149 23.0384 114.597 23.7789C115.045 24.5194 115.706 25.1094 116.495 25.4727C117.284 25.8361 118.165 25.956 119.023 25.8171C119.882 25.6782 120.678 25.2868 121.311 24.6935C121.943 24.1001 122.381 23.3321 122.57 22.4886C122.758 21.6451 122.688 20.7649 122.367 19.9616C122.047 19.1583 121.492 18.4689 120.773 17.9824C120.054 17.4958 119.205 17.2346 118.336 17.2323C117.214 17.204 116.126 17.6179 115.31 18.3835C114.494 19.1491 114.017 20.2043 113.981 21.3186ZM155.867 44.275C155.907 43.5372 155.724 42.8045 155.34 42.1715C154.956 41.5385 154.39 41.0344 153.715 40.7243C153.04 40.4142 152.287 40.3124 151.553 40.4321C150.819 40.5518 150.139 40.8875 149.599 41.3957C149.059 41.9039 148.685 42.5613 148.525 43.283C148.365 44.0046 148.427 44.7572 148.703 45.4435C148.978 46.1299 149.454 46.7184 150.07 47.1329C150.686 47.5474 151.412 47.769 152.156 47.7689C153.114 47.7935 154.043 47.4394 154.739 46.7844C155.435 46.1294 155.84 45.2269 155.867 44.275ZM80.7075 90.1777C82.2129 90.0982 83.6619 89.5821 84.8751 88.693C86.0883 87.804 87.0125 86.5811 87.5334 85.1757C88.0543 83.7703 88.149 82.2439 87.8058 80.7856C87.4625 79.3272 86.6964 78.0009 85.6023 76.9706C84.5082 75.9403 83.134 75.2512 81.6498 74.9888C80.1656 74.7263 78.6364 74.9019 77.2516 75.4938C75.8668 76.0857 74.6871 77.0679 73.8584 78.319C73.0297 79.5701 72.5884 81.0351 72.5891 82.5328C72.649 84.6149 73.537 86.5884 75.0587 88.0213C76.5803 89.4542 78.6116 90.2296 80.7075 90.1777ZM101.321 90.6435C102.632 90.5742 103.895 90.1244 104.952 89.3497C106.009 88.575 106.814 87.5093 107.268 86.2847C107.721 85.0601 107.804 83.7301 107.504 82.4595C107.205 81.1889 106.537 80.0333 105.584 79.1358C104.63 78.2383 103.433 77.6382 102.139 77.4099C100.846 77.1815 99.5139 77.3349 98.3074 77.851C97.101 78.3671 96.0734 79.2233 95.3517 80.3137C94.63 81.404 94.2459 82.6806 94.247 83.9856C94.2981 85.7997 95.0715 87.5197 96.3977 88.7679C97.7238 90.0161 99.4943 90.6906 101.321 90.6435ZM119.307 93.5347C120.39 93.4774 121.433 93.1059 122.306 92.466C123.178 91.8262 123.843 90.9461 124.218 89.9347C124.592 88.9234 124.66 87.8251 124.413 86.7758C124.166 85.7265 123.614 84.7723 122.827 84.0312C122.039 83.2901 121.05 82.7947 119.982 82.6062C118.914 82.4178 117.814 82.5446 116.818 82.9709C115.821 83.3973 114.973 84.1045 114.377 85.005C113.781 85.9056 113.464 86.9599 113.465 88.0376C113.485 88.7799 113.652 89.5111 113.956 90.1893C114.261 90.8675 114.697 91.4794 115.24 91.99C115.782 92.5005 116.421 92.8998 117.119 93.1649C117.817 93.4299 118.562 93.5556 119.309 93.5347H119.307ZM67.157 83.9856C67.236 82.5768 66.8876 81.1768 66.1569 79.9669C65.4262 78.7569 64.347 77.7926 63.0586 77.1987C61.7703 76.6049 60.3321 76.4087 58.9304 76.6356C57.5286 76.8626 56.2276 77.5022 55.1957 78.4717C54.1638 79.4412 53.4485 80.6961 53.1423 82.0739C52.8361 83.4517 52.9532 84.8891 53.4783 86.2001C54.0034 87.5111 54.9124 88.6354 56.0877 89.4276C57.2631 90.2197 58.6506 90.6433 60.0709 90.6435C61.8995 90.6943 63.6735 90.0213 65.0027 88.7728C66.3319 87.5242 67.1075 85.8022 67.1587 83.9856H67.157ZM47.9439 88.0376C48.0088 86.8746 47.7209 85.7191 47.1176 84.7204C46.5142 83.7218 45.6232 82.926 44.5596 82.4359C43.496 81.9459 42.3088 81.7842 41.1517 81.9718C39.9946 82.1593 38.9208 82.6875 38.0691 83.488C37.2175 84.2885 36.6273 85.3244 36.3748 86.4618C36.1223 87.5992 36.2191 88.7857 36.6527 89.8678C37.0864 90.9499 37.8369 91.8779 38.8072 92.5316C39.7775 93.1853 40.9229 93.5348 42.0953 93.5347C43.6038 93.5725 45.066 93.0154 46.1622 91.9853C47.2585 90.9552 47.8996 89.5359 47.9456 88.0376H47.9439Z" fill="#142A4A"></path></svg> 